<mxfile host="app.diagrams.net" modified="2023-12-12T12:35:20.976Z" agent="Mozilla/5.0 (X11; Linux x86_64) AppleWebKit/537.36 (KHTML, like Gecko) Chrome/117.0.0.0 Safari/537.36" version="22.1.7" etag="gyYqMKxIs09cb0vatmnT" type="github">
  <diagram name="Page-1" id="DaIG_e7ieGVc0VysO9zb">
    <mxGraphModel>
      <root>
        <mxCell id="0" />
        <mxCell id="1" parent="0" />
      </root>
    </mxGraphModel>
  </diagram>
</mxfile>
